<svg xmlns="http://www.w3.org/2000/svg" viewBox="0 0 800 500" width="800" height="500">
  <defs>
    <linearGradient id="bg" x1="0%" y1="0%" x2="100%" y2="100%">
      <stop offset="0%" style="stop-color:#1e3a5f"/>
      <stop offset="50%" style="stop-color:#2d5a87"/>
      <stop offset="100%" style="stop-color:#1a1a2e"/>
    </linearGradient>
    <linearGradient id="accent" x1="0%" y1="0%" x2="100%" y2="0%">
      <stop offset="0%" style="stop-color:#f39c12"/>
      <stop offset="100%" style="stop-color:#e74c3c"/>
    </linearGradient>
  </defs>
  <rect width="800" height="500" fill="url(#bg)"/>
  <circle cx="650" cy="100" r="180" fill="#ffffff" opacity="0.03"/>
  <circle cx="150" cy="400" r="250" fill="#ffffff" opacity="0.02"/>
  <rect x="60" y="60" width="180" height="180" rx="20" fill="url(#accent)" opacity="0.15"/>
  <g transform="translate(100, 100)">
    <rect x="10" y="10" width="60" height="80" rx="5" fill="#f39c12" opacity="0.9"/>
    <rect x="40" y="20" width="60" height="80" rx="5" fill="#e67e22" opacity="0.8"/>
    <rect x="65" y="15" width="60" height="80" rx="5" fill="#d35400" opacity="0.7"/>
    <rect x="90" y="25" width="60" height="80" rx="5" fill="#e74c3c" opacity="0.6"/>
    <line x1="20" y1="110" x2="140" y2="110" stroke="#f39c12" stroke-width="2" opacity="0.5"/>
    <text x="80" y="130" font-family="Arial, sans-serif" font-size="14" fill="#f39c12" text-anchor="middle" opacity="0.8">📊</text>
  </g>
  <text x="400" y="240" font-family="Traditional Arabic, Arial, sans-serif" font-size="38" fill="#ffffff" text-anchor="middle" font-weight="bold">التسويق الرقمي الاحترافي</text>
  <text x="400" y="285" font-family="Traditional Arabic, Arial, sans-serif" font-size="20" fill="#f39c12" text-anchor="middle">أتقن استراتيجيات التسويق الرقمي وزد مبيعاتك</text>
  <rect x="300" y="310" width="200" height="3" rx="1.5" fill="url(#accent)"/>
  <text x="400" y="345" font-family="Traditional Arabic, Arial, sans-serif" font-size="16" fill="#ffffff" opacity="0.6" text-anchor="middle">SEO · إعلانات · سوشيال ميديا · تسويق بالمحتوى</text>
  <text x="400" y="380" font-family="Arial, sans-serif" font-size="12" fill="#ffffff" opacity="0.3" text-anchor="middle">محتوى عربي احترافي</text>
</svg>