<svg xmlns="http://www.w3.org/2000/svg" viewBox="0 0 800 500" width="800" height="500">
  <defs>
    <linearGradient id="bg" x1="0%" y1="0%" x2="100%" y2="100%">
      <stop offset="0%" style="stop-color:#1a1a2e"/>
      <stop offset="30%" style="stop-color:#16213e"/>
      <stop offset="70%" style="stop-color:#0f3460"/>
      <stop offset="100%" style="stop-color:#533483"/>
    </linearGradient>
    <linearGradient id="accent" x1="0%" y1="0%" x2="100%" y2="0%">
      <stop offset="0%" style="stop-color:#e94560"/>
      <stop offset="100%" style="stop-color:#f5a623"/>
    </linearGradient>
  </defs>
  <rect width="800" height="500" fill="url(#bg)"/>
  <circle cx="680" cy="420" r="280" fill="#ffffff" opacity="0.03"/>
  <circle cx="120" cy="80" r="200" fill="#ffffff" opacity="0.04"/>
  <g transform="translate(280, 50)">
    <rect x="0" y="0" width="240" height="130" rx="12" fill="#ffffff" opacity="0.95"/>
    <rect x="15" y="12" width="100" height="12" rx="4" fill="#e94560" opacity="0.8"/>
    <rect x="125" y="12" width="40" height="12" rx="4" fill="#f5a623" opacity="0.5"/>
    <rect x="15" y="30" width="210" height="2" fill="#1a1a2e" opacity="0.06"/>
    <rect x="15" y="38" width="90" height="7" rx="3" fill="#1a1a2e" opacity="0.08"/>
    <rect x="115" y="38" width="110" height="7" rx="3" fill="#1a1a2e" opacity="0.08"/>
    <rect x="15" y="50" width="210" height="2" fill="#1a1a2e" opacity="0.06"/>
    <rect x="15" y="57" width="70" height="7" rx="3" fill="#533483" opacity="0.15"/>
    <rect x="95" y="57" width="130" height="7" rx="3" fill="#1a1a2e" opacity="0.06"/>
    <rect x="15" y="69" width="210" height="2" fill="#1a1a2e" opacity="0.06"/>
    <rect x="15" y="76" width="160" height="7" rx="3" fill="#1a1a2e" opacity="0.08"/>
    <rect x="185" y="76" width="40" height="7" rx="3" fill="#e94560" opacity="0.3"/>
    <rect x="15" y="88" width="210" height="2" fill="#1a1a2e" opacity="0.06"/>
    <rect x="15" y="95" width="55" height="7" rx="3" fill="#0f3460" opacity="0.12"/>
    <rect x="80" y="95" width="55" height="7" rx="3" fill="#1a1a2e" opacity="0.06"/>
    <rect x="145" y="95" width="55" height="7" rx="3" fill="#1a1a2e" opacity="0.06"/>
    <rect x="15" y="107" width="210" height="2" fill="#1a1a2e" opacity="0.06"/>
    <rect x="15" y="114" width="210" height="10" rx="4" fill="url(#accent)" opacity="0.7"/>
  </g>
  <text x="400" y="238" font-family="Traditional Arabic, Arial, sans-serif" font-size="32" fill="#ffffff" text-anchor="middle" font-weight="bold">منصة كوراكت للتدريب الاحترافي</text>
  <text x="400" y="275" font-family="Traditional Arabic, Arial, sans-serif" font-size="18" fill="#f5a623" text-anchor="middle">منصة متكاملة لإدارة مراكز التدريب والدورات أونلاين</text>
  <rect x="300" y="298" width="200" height="3" rx="1.5" fill="url(#accent)"/>
  <text x="400" y="333" font-family="Traditional Arabic, Arial, sans-serif" font-size="15" fill="#ffffff" opacity="0.7" text-anchor="middle">إدارة دورات · حضور ذكي · تعليم إلكتروني · شهادات رقمية</text>
  <text x="400" y="363" font-family="Traditional Arabic, Arial, sans-serif" font-size="14" fill="#ffffff" opacity="0.4" text-anchor="middle">سحابة خاصة · دعم فني · تحديثات مستمرة</text>
  <g transform="translate(320, 390)">
    <rect x="0" y="0" width="160" height="35" rx="8" fill="#e94560" opacity="0.2"/>
    <text x="80" y="23" font-family="Traditional Arabic, Arial, sans-serif" font-size="14" fill="#e94560" text-anchor="middle">الإصدار 2026 — جديد</text>
  </g>
</svg>