<svg xmlns="http://www.w3.org/2000/svg" viewBox="0 0 800 500" width="800" height="500">
  <defs>
    <linearGradient id="bg" x1="0%" y1="0%" x2="100%" y2="100%">
      <stop offset="0%" style="stop-color:#2c3e50"/>
      <stop offset="50%" style="stop-color:#3498db"/>
      <stop offset="100%" style="stop-color:#2980b9"/>
    </linearGradient>
    <linearGradient id="accent" x1="0%" y1="0%" x2="100%" y2="0%">
      <stop offset="0%" style="stop-color:#f1c40f"/>
      <stop offset="100%" style="stop-color:#e67e22"/>
    </linearGradient>
  </defs>
  <rect width="800" height="500" fill="url(#bg)"/>
  <circle cx="100" cy="420" r="200" fill="#ffffff" opacity="0.03"/>
  <circle cx="700" cy="80" r="170" fill="#ffffff" opacity="0.04"/>
  <g transform="translate(310, 50)">
    <rect x="15" y="0" width="150" height="110" rx="8" fill="#ffffff" opacity="0.92"/>
    <rect x="25" y="12" width="130" height="5" rx="2.5" fill="#3498db"/>
    <rect x="25" y="22" width="100" height="5" rx="2.5" fill="#3498db" opacity="0.5"/>
    <rect x="25" y="34" width="130" height="2" fill="#2c3e50" opacity="0.1"/>
    <rect x="25" y="42" width="50" height="6" rx="2" fill="#3498db" opacity="0.3"/>
    <rect x="85" y="42" width="50" height="6" rx="2" fill="#e67e22" opacity="0.3"/>
    <rect x="25" y="54" width="130" height="2" fill="#2c3e50" opacity="0.1"/>
    <rect x="25" y="62" width="80" height="6" rx="2" fill="#3498db" opacity="0.3"/>
    <rect x="115" y="62" width="40" height="6" rx="2" fill="#2ecc71" opacity="0.3"/>
    <rect x="25" y="74" width="130" height="2" fill="#2c3e50" opacity="0.1"/>
    <rect x="25" y="82" width="60" height="6" rx="2" fill="#3498db" opacity="0.3"/>
    <rect x="95" y="82" width="60" height="6" rx="2" fill="#e74c3c" opacity="0.3"/>
    <rect x="25" y="94" width="130" height="2" fill="#2c3e50" opacity="0.1"/>
    <rect x="50" y="100" width="80" height="5" rx="2.5" fill="#f1c40f" opacity="0.4"/>
  </g>
  <text x="400" y="225" font-family="Traditional Arabic, Arial, sans-serif" font-size="36" fill="#ffffff" text-anchor="middle" font-weight="bold">نظام إدارة المدارس والتعليم</text>
  <text x="400" y="268" font-family="Traditional Arabic, Arial, sans-serif" font-size="18" fill="#f1c40f" text-anchor="middle">نظام شامل—من التسجيل حتى إصدار الشهادات</text>
  <rect x="300" y="292" width="200" height="3" rx="1.5" fill="url(#accent)"/>
  <text x="400" y="328" font-family="Traditional Arabic, Arial, sans-serif" font-size="15" fill="#ffffff" opacity="0.7" text-anchor="middle">طلاب · جداول · درجات · شهادات · تواصل · تقارير</text>
  <text x="400" y="360" font-family="Traditional Arabic, Arial, sans-serif" font-size="14" fill="#ffffff" opacity="0.4" text-anchor="middle">نسخة سحابية ومحلية · واجهة عربية كاملة</text>
  <g transform="translate(320, 385)">
    <rect x="0" y="0" width="160" height="35" rx="8" fill="#f1c40f" opacity="0.2"/>
    <text x="80" y="23" font-family="Traditional Arabic, Arial, sans-serif" font-size="14" fill="#f1c40f" text-anchor="middle">النسخة المتكاملة 2026</text>
  </g>
</svg>